<?xml version="1.0" standalone="no"?>
<!DOCTYPE svg PUBLIC "-//W3C//DTD SVG 20010904//EN"
 "http://www.w3.org/TR/2001/REC-SVG-20010904/DTD/svg10.dtd">
<svg version="1.0" xmlns="http://www.w3.org/2000/svg"
 width="700.000000pt" height="700.000000pt" viewBox="0 0 700.000000 700.000000"
 preserveAspectRatio="xMidYMid meet">
<metadata>
Created by potrace 1.11, written by Peter Selinger 2001-2013
</metadata>
<g transform="translate(0.000000,700.000000) scale(0.100000,-0.100000)"
fill="#000000" stroke="none">
<path d="M0 3500 l0 -3500 3500 0 3500 0 0 3500 0 3500 -3500 0 -3500 0 0
-3500z m2639 1551 c10 -10 59 -121 109 -247 50 -126 316 -796 591 -1488 276
-693 501 -1270 501 -1282 0 -12 -9 -32 -19 -45 l-19 -24 -380 0 c-357 0 -381
1 -400 19 -13 11 -45 89 -83 203 -34 102 -70 194 -80 204 -18 18 -44 19 -537
19 -489 0 -520 -1 -535 -18 -9 -10 -48 -103 -86 -206 -38 -104 -76 -196 -85
-205 -15 -14 -60 -16 -379 -19 -392 -2 -400 -1 -425 51 -13 26 6 77 337 900
192 480 462 1153 600 1497 161 400 259 631 272 643 19 15 50 17 310 17 269 0
290 -1 308 -19z m2121 -796 l5 -810 200 260 c109 143 252 330 317 415 66 85
129 161 141 167 27 16 711 18 751 3 15 -5 26 -17 26 -28 0 -10 -184 -234 -410
-497 -225 -263 -410 -487 -410 -497 0 -10 177 -289 394 -621 375 -575 416
-639 416 -651 0 -2 -7 -12 -16 -20 -13 -14 -61 -16 -375 -16 l-359 0 -27 39
c-16 21 -165 273 -333 559 -168 287 -308 522 -312 522 -5 0 -8 -247 -8 -550 0
-533 -1 -550 -19 -560 -12 -6 -135 -10 -330 -10 -298 0 -312 1 -331 20 -20 20
-20 33 -20 1529 0 962 4 1519 10 1535 l10 26 337 -2 338 -3 5 -810z"/>
<path d="M2171 3605 c-83 -278 -154 -519 -158 -535 l-5 -30 322 0 322 0 -7 28
c-19 77 -308 1028 -314 1035 -4 4 -76 -220 -160 -498z"/>
</g>
</svg>
