<?xml version="1.0" encoding="utf-8"?>
<!-- Generator: Adobe Illustrator 24.0.1, SVG Export Plug-In . SVG Version: 6.00 Build 0)  -->
<svg version="1.1"
     id="Layer_1"
     xmlns="http://www.w3.org/2000/svg" xmlns:xlink="http://www.w3.org/1999/xlink" x="0px" y="0px"
     viewBox="0 0 190.3 35.9"
     style="enable-background:new 0 0 190.3 35.9;" xml:space="preserve">
<style type="text/css">
	.st0{clip-path:url(#SVGID_2_);fill:none;}
	.st1{clip-path:url(#SVGID_2_);fill-rule:evenodd;clip-rule:evenodd;fill:#101415;}
</style>
<g>
	<defs>
		<rect id="SVGID_1_" x="0" y="0" width="190.3" height="35.9"/>
	</defs>
	<clipPath id="SVGID_2_">
		<use xlink:href="#SVGID_1_"  style="overflow:visible;"/>
	</clipPath>
	<rect x="0" y="0" class="st0" width="34.7" height="35.1"/>
	<path class="st1" d="M14.4,22.9h6c0.4,0,0.6-0.3,0.5-0.6l-3.2-10.7c-0.1-0.3-0.2-0.6-0.2-0.6h0h-0.1c0,0-0.1,0.3-0.2,0.6l-3.2,10.7
		C13.8,22.6,14,22.9,14.4,22.9z M11,30.6l-1.4,3.8c-0.1,0.3-0.5,0.6-0.9,0.6H0.5c-0.4,0-0.6-0.3-0.4-0.6L13.6,0.6
		C13.7,0.3,14.2,0,14.5,0h5.7c0.4,0,0.8,0.3,0.9,0.6l13.4,33.8c0.1,0.3-0.1,0.6-0.4,0.6h-8.4c-0.4,0-0.8-0.3-0.9-0.6l-1.3-3.8
		c-0.1-0.4-0.5-0.7-0.9-0.7H11.9C11.6,30,11.2,30.3,11,30.6z"/>
	<rect x="35.5" y="0" class="st0" width="24.3" height="35.1"/>
	<path class="st1" d="M36.2,0h6.5c0.4,0,0.7,0.3,0.7,0.7v17c0,0.4,0,0.7,0,0.7c0,0,0.2-0.2,0.5-0.5l6.5-8.4c0.2-0.3,0.7-0.5,1.1-0.5
		h8c0.4,0,0.5,0.2,0.3,0.5l-9,10.5c-0.3,0.3-0.3,0.8-0.1,1.1l8.9,13.6c0.2,0.3,0.1,0.6-0.3,0.6h-7.6c-0.4,0-0.8-0.3-1-0.6L43.9,23
		c-0.2-0.3-0.4-0.6-0.4-0.6c0,0,0,0.3,0,0.7v11.3c0,0.4-0.3,0.7-0.7,0.7h-6.5c-0.4,0-0.7-0.3-0.7-0.7V0.7C35.5,0.3,35.9,0,36.2,0z"
		/>
	<rect x="57.7" y="7.9" class="st0" width="28.4" height="28"/>
	<path class="st1" d="M71.9,28.5c3.4,0,6.3-2.8,6.3-6.6c0-3.8-2.9-6.6-6.3-6.6c-3.4,0-6.3,2.8-6.3,6.6
		C65.6,25.7,68.5,28.5,71.9,28.5z M71.9,7.9c9.6,0,14.2,7.5,14.2,14c0,6.5-4.6,14-14.2,14s-14.2-7.5-14.2-14
		C57.7,15.4,62.3,7.9,71.9,7.9z"/>
	<rect x="161.9" y="7.9" class="st0" width="28.4" height="28"/>
	<path class="st1" d="M176.1,28.5c3.4,0,6.3-2.8,6.3-6.6c0-3.8-2.9-6.6-6.3-6.6c-3.4,0-6.3,2.8-6.3,6.6
		C169.8,25.7,172.7,28.5,176.1,28.5z M176.1,7.9c9.6,0,14.2,7.5,14.2,14c0,6.5-4.6,14-14.2,14s-14.2-7.5-14.2-14
		C161.9,15.4,166.5,7.9,176.1,7.9z"/>
	<rect x="87.7" y="7.9" class="st0" width="72.9" height="27.2"/>
	<path class="st1" d="M150.7,7.9c-3.7,0-6.3,1.8-8,4.1c-0.2,0.3-0.5,0.3-0.7,0c-2.1-3.4-5-4.1-7.2-4.1c-3.6,0-6.2,1.7-7.8,3.9
		c-0.2,0.3-0.5,0.3-0.8,0c-0.3-0.4-0.7-0.8-1-1.2c-2.2-2.2-5.1-2.7-6.9-2.7c-3.7,0-6.3,1.8-8,4.1c-0.2,0.3-0.5,0.3-0.7,0
		c-2.1-3.4-5-4.1-7.3-4.1c-4.2,0-6,1.9-6.9,3.1c-0.2,0.3-0.4,0.6-0.4,0.6c0,0-0.1-0.3-0.1-0.7V9.5c0-0.4-0.3-0.7-0.7-0.7h-6
		c-0.4,0-0.7,0.3-0.7,0.7v24.9c0,0.4,0.3,0.7,0.7,0.7h6.5c0.4,0,0.7-0.3,0.7-0.7V21.1c0-1.6,0-5.8,4.5-5.8c3.9,0,3.9,4.1,3.9,5.5
		v13.6c0,0.4,0.3,0.7,0.7,0.7h6.5c0.4,0,0.7-0.3,0.7-0.7V20.7c0-1.5,0-5.4,4.3-5.4c4,0,4,3.7,4,5.8v13.3c0,0.4,0.3,0.7,0.7,0.7h6.5
		c0.4,0,0.7-0.3,0.7-0.7V20.7c0-0.3,0-0.6,0-0.9c0.1-1.9,0.9-4.5,4.4-4.5c3.9,0,3.9,4.1,3.9,5.5v13.6c0,0.4,0.3,0.7,0.7,0.7h6.5
		c0.4,0,0.7-0.3,0.7-0.7V20.7c0-1.5,0-5.4,4.4-5.4c4,0,4,3.7,4,5.8v13.3c0,0.4,0.3,0.7,0.7,0.7h6.5c0.4,0,0.7-0.3,0.7-0.7V20.7
		c0-5.8-0.4-7.6-2.9-10.2C155.5,8.3,152.6,7.9,150.7,7.9z"/>
</g>
</svg>
