<svg xmlns="http://www.w3.org/2000/svg" viewBox="0 0 250 250"><defs><style>.a{fill:#404041;}.b{fill:#09e9df;}</style></defs><title>akommo-logo</title><rect class="a" width="250" height="250"/><path class="b" d="M63.09,165.56l-4.58,12.55a2.66,2.66,0,0,1-2.5,1.75H31.36a2.67,2.67,0,0,1-2.47-3.66L71.3,70.53a2.67,2.67,0,0,1,2.47-1.67H92.52A2.66,2.66,0,0,1,95,70.54l42,105.67a2.66,2.66,0,0,1-2.47,3.65H109.58a2.66,2.66,0,0,1-2.52-1.82l-4.18-12.42a2.66,2.66,0,0,0-2.52-1.81H65.59A2.66,2.66,0,0,0,63.09,165.56Zm8.43-24.25H94.77l-11.4-37.95h-.45Z"/><path class="b" d="M146.5,68.86h22.24a1.33,1.33,0,0,1,1.33,1.33v56.57h.3l22.7-29.63a1.35,1.35,0,0,1,1.06-.52h26a1.33,1.33,0,0,1,1,2.2l-28.82,33.64a1.32,1.32,0,0,0-.1,1.59l28.56,43.76a1.33,1.33,0,0,1-1.11,2.06h-25a1.32,1.32,0,0,1-1.14-.66l-23.17-39.39h-.3v38.72a1.33,1.33,0,0,1-1.33,1.33H146.5a1.34,1.34,0,0,1-1.33-1.33V70.19A1.34,1.34,0,0,1,146.5,68.86Z"/></svg>