<svg xmlns="http://www.w3.org/2000/svg" xmlns:xlink="http://www.w3.org/1999/xlink" viewBox="0 0 190.3 35.9"><defs><style>.a{fill:none;}.b{clip-path:url(#a);}.c{fill:#f2f2f2;fill-rule:evenodd;}</style><clipPath id="a"><rect class="a" width="190.3" height="35.9"/></clipPath></defs><title>logo-dark</title><g class="b"><rect class="a" width="34.7" height="35.1"/></g><rect class="a" width="190.3" height="35.9"/><path class="c" d="M14.4,22.9h6a.46.46,0,0,0,.5-.6L17.7,11.6l-.2-.6h-.1l-.2.6L14,22.3C13.8,22.6,14,22.9,14.4,22.9ZM11,30.6,9.6,34.4a1,1,0,0,1-.9.6H.5c-.4,0-.6-.3-.4-.6L13.6.6a1.15,1.15,0,0,1,.9-.6h5.7a1,1,0,0,1,.9.6L34.5,34.4a.44.44,0,0,1-.4.6H25.7a1,1,0,0,1-.9-.6l-1.3-3.8a1,1,0,0,0-.9-.7H11.9A2,2,0,0,0,11,30.6Z"/><g class="b"><rect class="a" x="35.5" width="24.3" height="35.1"/></g><rect class="a" width="190.3" height="35.9"/><path class="c" d="M36.2,0h6.5a.68.68,0,0,1,.7.7V18.4l.5-.5,6.5-8.4A1.43,1.43,0,0,1,51.5,9h8c.4,0,.5.2.3.5L50.8,20a.91.91,0,0,0-.1,1.1l8.9,13.6c.2.3.1.6-.3.6H51.7a1.33,1.33,0,0,1-1-.6L43.9,23l-.4-.6v12a.68.68,0,0,1-.7.7H36.3a.68.68,0,0,1-.7-.7V.7A.61.61,0,0,1,36.2,0Z"/><g class="b"><rect class="a" x="57.7" y="7.9" width="28.4" height="28"/></g><rect class="a" width="190.3" height="35.9"/><path class="c" d="M71.9,28.5a6.41,6.41,0,0,0,6.3-6.6,6.31,6.31,0,1,0-12.6,0A6.41,6.41,0,0,0,71.9,28.5Zm0-20.6c9.6,0,14.2,7.5,14.2,14s-4.6,14-14.2,14-14.2-7.5-14.2-14S62.3,7.9,71.9,7.9Z"/><g class="b"><rect class="a" x="161.9" y="7.9" width="28.4" height="28"/></g><rect class="a" width="190.3" height="35.9"/><path class="c" d="M176.1,28.5a6.41,6.41,0,0,0,6.3-6.6,6.31,6.31,0,1,0-12.6,0A6.41,6.41,0,0,0,176.1,28.5Zm0-20.6c9.6,0,14.2,7.5,14.2,14s-4.6,14-14.2,14-14.2-7.5-14.2-14S166.5,7.9,176.1,7.9Z"/><g class="b"><rect class="a" x="87.7" y="7.9" width="72.9" height="27.2"/></g><rect class="a" width="190.3" height="35.9"/><path class="c" d="M150.7,7.9a9.63,9.63,0,0,0-8,4.1.38.38,0,0,1-.7,0,8,8,0,0,0-7.2-4.1,9.36,9.36,0,0,0-7.8,3.9c-.2.3-.5.3-.8,0s-.7-.8-1-1.2a9.85,9.85,0,0,0-6.9-2.7,9.63,9.63,0,0,0-8,4.1.38.38,0,0,1-.7,0,8.09,8.09,0,0,0-7.3-4.1c-4.2,0-6,1.9-6.9,3.1l-.4.6a2.44,2.44,0,0,1-.1-.7V9.5a.68.68,0,0,0-.7-.7h-6a.68.68,0,0,0-.7.7V34.4a.68.68,0,0,0,.7.7h6.5a.68.68,0,0,0,.7-.7V21.1c0-1.6,0-5.8,4.5-5.8,3.9,0,3.9,4.1,3.9,5.5V34.4a.68.68,0,0,0,.7.7H111a.68.68,0,0,0,.7-.7V20.7c0-1.5,0-5.4,4.3-5.4,4,0,4,3.7,4,5.8V34.4a.68.68,0,0,0,.7.7h6.5a.68.68,0,0,0,.7-.7V19.8c.1-1.9.9-4.5,4.4-4.5,3.9,0,3.9,4.1,3.9,5.5V34.4a.68.68,0,0,0,.7.7h6.5a.68.68,0,0,0,.7-.7V20.7c0-1.5,0-5.4,4.4-5.4,4,0,4,3.7,4,5.8V34.4a.68.68,0,0,0,.7.7h6.5a.68.68,0,0,0,.7-.7V20.7c0-5.8-.4-7.6-2.9-10.2A9.06,9.06,0,0,0,150.7,7.9Z"/></svg>